<?xml version="1.0" standalone="no"?>
<!DOCTYPE svg PUBLIC "-//W3C//DTD SVG 20010904//EN"
 "http://www.w3.org/TR/2001/REC-SVG-20010904/DTD/svg10.dtd">
<svg version="1.0" xmlns="http://www.w3.org/2000/svg"
 width="1280.000000pt" height="1030.000000pt" viewBox="0 0 1280.000000 1030.000000"
 preserveAspectRatio="xMidYMid meet">
<g transform="translate(0.000000,1030.000000) scale(0.100000,-0.100000)"
fill="#000000" stroke="none">
<path d="M90 10278 c-34 -18 -51 -35 -69 -71 l-24 -49 20 -42 c23 -46 6231
-10003 6268 -10052 13 -16 41 -38 64 -49 40 -18 42 -18 82 0 23 11 51 33 64
49 38 51 6266 9997 6288 10043 l21 43 -25 47 c-42 76 -120 104 -184 64 -16
-10 -1417 -1403 -3112 -3095 -2051 -2047 -3087 -3075 -3095 -3070 -7 4 -1396
1393 -3087 3087 -1843 1845 -3090 3087 -3113 3098 -46 24 -44 24 -98 -3z"/>
</g>
</svg>
