<svg xmlns="http://www.w3.org/2000/svg" width="80" height="80" viewBox="0 0 96.489 96.489">
  <g id="Icon_feather-settings" data-name="Icon feather-settings" transform="translate(30.685 0) rotate(25)">
    <path id="Tracé_1" data-name="Tracé 1" d="M32.484,22.992A9.492,9.492,0,1,1,22.992,13.5,9.492,9.492,0,0,1,32.484,22.992Z" transform="translate(13.312 13.312)" fill="none" stroke="#0c0c0c" stroke-linecap="round" stroke-linejoin="round" stroke-width="3"/>
    <path id="Tracé_2" data-name="Tracé 2" d="M59.716,45.8a5.221,5.221,0,0,0,1.044,5.758l.19.19A6.331,6.331,0,1,1,52,60.7l-.19-.19a5.263,5.263,0,0,0-8.922,3.733v.538a6.328,6.328,0,1,1-12.656,0v-.285a5.22,5.22,0,0,0-3.417-4.778,5.22,5.22,0,0,0-5.758,1.044l-.19.19A6.331,6.331,0,1,1,11.909,52l.19-.19a5.263,5.263,0,0,0-3.733-8.922H7.828a6.328,6.328,0,0,1,0-12.656h.285a5.22,5.22,0,0,0,4.778-3.417,5.22,5.22,0,0,0-1.044-5.758l-.19-.19a6.331,6.331,0,1,1,8.954-8.954l.19.19a5.22,5.22,0,0,0,5.758,1.044h.253a5.22,5.22,0,0,0,3.164-4.778V7.828a6.328,6.328,0,0,1,12.656,0v.285a5.263,5.263,0,0,0,8.922,3.733l.19-.19A6.331,6.331,0,1,1,60.7,20.61l-.19.19a5.22,5.22,0,0,0-1.044,5.758v.253a5.22,5.22,0,0,0,4.778,3.164h.538a6.328,6.328,0,1,1,0,12.656h-.285A5.22,5.22,0,0,0,59.716,45.8Z" transform="translate(0 0)" fill="none" stroke="#0c0c0c" stroke-linecap="round" stroke-linejoin="round" stroke-width="3"/>
  </g>
</svg>
